<svg id="visual" viewBox="0 0 900 600"  xmlns="http://www.w3.org/2000/svg" xmlns:xlink="http://www.w3.org/1999/xlink" version="1.1"><rect x="0" y="0" width="100vw" height="100vw" fill="#001220"></rect><path d="M0 278L25 285.3C50 292.7 100 307.3 150 323.7C200 340 250 358 300 355.5C350 353 400 330 450 328.7C500 327.3 550 347.7 600 359.8C650 372 700 376 750 364C800 352 850 324 875 310L900 296L900 601L875 601C850 601 800 601 750 601C700 601 650 601 600 601C550 601 500 601 450 601C400 601 350 601 300 601C250 601 200 601 150 601C100 601 50 601 25 601L0 601Z" fill="#fa7268"></path><path d="M0 412L25 411.5C50 411 100 410 150 406C200 402 250 395 300 392.3C350 389.7 400 391.3 450 380.7C500 370 550 347 600 349.2C650 351.3 700 378.7 750 385.3C800 392 850 378 875 371L900 364L900 601L875 601C850 601 800 601 750 601C700 601 650 601 600 601C550 601 500 601 450 601C400 601 350 601 300 601C250 601 200 601 150 601C100 601 50 601 25 601L0 601Z" fill="#ef5f67"></path><path d="M0 468L25 458.5C50 449 100 430 150 426.2C200 422.3 250 433.7 300 435.7C350 437.7 400 430.3 450 431.2C500 432 550 441 600 444.3C650 447.7 700 445.3 750 448.8C800 452.3 850 461.7 875 466.3L900 471L900 601L875 601C850 601 800 601 750 601C700 601 650 601 600 601C550 601 500 601 450 601C400 601 350 601 300 601C250 601 200 601 150 601C100 601 50 601 25 601L0 601Z" fill="#e34c67"></path><path d="M0 479L25 478.5C50 478 100 477 150 477.8C200 478.7 250 481.3 300 474.2C350 467 400 450 450 452.5C500 455 550 477 600 485.2C650 493.3 700 487.7 750 487C800 486.3 850 490.7 875 492.8L900 495L900 601L875 601C850 601 800 601 750 601C700 601 650 601 600 601C550 601 500 601 450 601C400 601 350 601 300 601C250 601 200 601 150 601C100 601 50 601 25 601L0 601Z" fill="#d53867"></path><path d="M0 506L25 514.2C50 522.3 100 538.7 150 545.8C200 553 250 551 300 546C350 541 400 533 450 525.3C500 517.7 550 510.3 600 507.3C650 504.3 700 505.7 750 515.7C800 525.7 850 544.3 875 553.7L900 563L900 601L875 601C850 601 800 601 750 601C700 601 650 601 600 601C550 601 500 601 450 601C400 601 350 601 300 601C250 601 200 601 150 601C100 601 50 601 25 601L0 601Z" fill="#c62368"></path></svg>